<mxfile host="www.draw.io" modified="2020-03-24T07:20:43.796Z" agent="Mozilla/5.0 (Macintosh; Intel Mac OS X 10_13_6) AppleWebKit/537.36 (KHTML, like Gecko) Chrome/80.0.3987.149 Safari/537.36" etag="bMC1Sic0YbifpQsFtIjK" version="12.9.0" type="github">
  <diagram id="WAd7HUJI1xCaw4GOvatW" name="Page-1">
    <mxGraphModel dx="892" dy="498" grid="1" gridSize="10" guides="1" tooltips="1" connect="1" arrows="1" fold="1" page="1" pageScale="1" pageWidth="827" pageHeight="1169" math="0" shadow="0">
      <root>
        <mxCell id="0" />
        <mxCell id="1" parent="0" />
        <mxCell id="t3-glR02UN_HUnzGya-1-22" value="门店市场 Cboh_market&lt;br&gt;CBOH_MARKET_3CH" style="rounded=1;whiteSpace=wrap;html=1;" parent="1" vertex="1">
          <mxGeometry x="229" y="50" width="146" height="60" as="geometry" />
        </mxCell>
        <mxCell id="t3-glR02UN_HUnzGya-1-23" value="门店品牌 Brand&lt;br&gt;CBOH_BRAND_3CH" style="rounded=1;whiteSpace=wrap;html=1;" parent="1" vertex="1">
          <mxGeometry x="40" y="50" width="146" height="60" as="geometry" />
        </mxCell>
        <mxCell id="t3-glR02UN_HUnzGya-1-24" value="门店运营区 Cboh_boh&lt;br&gt;CBOH_BOH_3CH" style="rounded=1;whiteSpace=wrap;html=1;" parent="1" vertex="1">
          <mxGeometry x="420" y="50" width="160" height="60" as="geometry" />
        </mxCell>
        <mxCell id="t3-glR02UN_HUnzGya-1-25" value="门店组 StoreTeam&lt;br&gt;CBOH_STORETEAM_3CH" style="rounded=1;whiteSpace=wrap;html=1;" parent="1" vertex="1">
          <mxGeometry x="40" y="270" width="210" height="60" as="geometry" />
        </mxCell>
        <mxCell id="t3-glR02UN_HUnzGya-1-27" value="门店 Store&lt;br&gt;CBOH_STORE_3CH" style="rounded=1;whiteSpace=wrap;html=1;" parent="1" vertex="1">
          <mxGeometry x="365" y="160" width="170" height="60" as="geometry" />
        </mxCell>
        <mxCell id="t3-glR02UN_HUnzGya-1-29" value="门店督导区 Governor&lt;br&gt;CBOH_GOVERNOR_3CH" style="rounded=1;whiteSpace=wrap;html=1;" parent="1" vertex="1">
          <mxGeometry x="630" y="50" width="170" height="60" as="geometry" />
        </mxCell>
        <mxCell id="t3-glR02UN_HUnzGya-1-33" value="1" style="endArrow=open;html=1;endSize=12;startArrow=diamondThin;startSize=14;startFill=0;edgeStyle=orthogonalEdgeStyle;align=left;verticalAlign=bottom;" parent="1" edge="1">
          <mxGeometry x="0.0722" y="40" relative="1" as="geometry">
            <mxPoint x="149" y="267" as="sourcePoint" />
            <mxPoint x="149" y="220" as="targetPoint" />
            <Array as="points" />
            <mxPoint x="40" y="40" as="offset" />
          </mxGeometry>
        </mxCell>
        <mxCell id="t3-glR02UN_HUnzGya-1-37" value="门店组明细 StoreTeamDetail&lt;br&gt;CBOH_STORETEAMDETAIL_3CH" style="rounded=1;whiteSpace=wrap;html=1;" parent="1" vertex="1">
          <mxGeometry x="40" y="160" width="210" height="60" as="geometry" />
        </mxCell>
        <mxCell id="t3-glR02UN_HUnzGya-1-38" value="" style="endArrow=none;html=1;exitX=1;exitY=0.5;exitDx=0;exitDy=0;entryX=0;entryY=0.5;entryDx=0;entryDy=0;" parent="1" source="t3-glR02UN_HUnzGya-1-37" target="t3-glR02UN_HUnzGya-1-27" edge="1">
          <mxGeometry width="50" height="50" relative="1" as="geometry">
            <mxPoint x="410" y="230" as="sourcePoint" />
            <mxPoint x="460" y="180" as="targetPoint" />
          </mxGeometry>
        </mxCell>
        <mxCell id="t3-glR02UN_HUnzGya-1-39" value="1" style="text;html=1;align=center;verticalAlign=middle;resizable=0;points=[];labelBackgroundColor=#ffffff;" parent="t3-glR02UN_HUnzGya-1-38" vertex="1" connectable="0">
          <mxGeometry x="0.565" y="-2" relative="1" as="geometry">
            <mxPoint x="7.6" y="-12" as="offset" />
          </mxGeometry>
        </mxCell>
        <mxCell id="t3-glR02UN_HUnzGya-1-40" value="1" style="text;html=1;align=center;verticalAlign=middle;resizable=0;points=[];autosize=1;" parent="1" vertex="1">
          <mxGeometry x="244" y="170" width="20" height="20" as="geometry" />
        </mxCell>
        <mxCell id="t3-glR02UN_HUnzGya-1-48" value="门店POS设备 StorePos&lt;br&gt;CBOH_STOREPOS_3CH" style="rounded=1;whiteSpace=wrap;html=1;" parent="1" vertex="1">
          <mxGeometry x="40" y="380" width="150" height="60" as="geometry" />
        </mxCell>
        <mxCell id="t3-glR02UN_HUnzGya-1-59" value="门店操作员 Operator&lt;br&gt;CBOH_OPERATOR_3CH" style="rounded=1;whiteSpace=wrap;html=1;" parent="1" vertex="1">
          <mxGeometry x="280" y="380" width="150" height="60" as="geometry" />
        </mxCell>
        <mxCell id="t3-glR02UN_HUnzGya-1-63" value="门店部门 StoreDept&lt;br&gt;CBOH_STOREDEPT_3CH" style="rounded=1;whiteSpace=wrap;html=1;" parent="1" vertex="1">
          <mxGeometry x="640" y="380" width="160" height="60" as="geometry" />
        </mxCell>
        <mxCell id="t3-glR02UN_HUnzGya-1-71" value="门店类型 Restauranttype&lt;br&gt;CBOH_RESTAURANTTYPE_3CH" style="rounded=1;whiteSpace=wrap;html=1;" parent="1" vertex="1">
          <mxGeometry x="630" y="160" width="170" height="60" as="geometry" />
        </mxCell>
        <mxCell id="t3-glR02UN_HUnzGya-1-72" value="法人类型 Juridical&lt;br&gt;CBOH_JURIDICAL_3CH" style="rounded=1;whiteSpace=wrap;html=1;" parent="1" vertex="1">
          <mxGeometry x="630" y="270" width="170" height="60" as="geometry" />
        </mxCell>
        <mxCell id="t3-glR02UN_HUnzGya-1-73" value="" style="endArrow=classic;html=1;entryX=1;entryY=0.5;entryDx=0;entryDy=0;exitX=0;exitY=0.5;exitDx=0;exitDy=0;" parent="1" source="t3-glR02UN_HUnzGya-1-22" target="t3-glR02UN_HUnzGya-1-23" edge="1">
          <mxGeometry width="50" height="50" relative="1" as="geometry">
            <mxPoint x="420" y="290" as="sourcePoint" />
            <mxPoint x="470" y="240" as="targetPoint" />
          </mxGeometry>
        </mxCell>
        <mxCell id="t3-glR02UN_HUnzGya-1-74" value="" style="endArrow=classic;html=1;entryX=1;entryY=0.5;entryDx=0;entryDy=0;exitX=0;exitY=0.5;exitDx=0;exitDy=0;" parent="1" edge="1">
          <mxGeometry width="50" height="50" relative="1" as="geometry">
            <mxPoint x="418" y="79.60000000000002" as="sourcePoint" />
            <mxPoint x="375" y="79.60000000000002" as="targetPoint" />
          </mxGeometry>
        </mxCell>
        <mxCell id="t3-glR02UN_HUnzGya-1-75" value="" style="endArrow=classic;html=1;entryX=1;entryY=0.5;entryDx=0;entryDy=0;exitX=0;exitY=0.5;exitDx=0;exitDy=0;" parent="1" source="t3-glR02UN_HUnzGya-1-29" edge="1">
          <mxGeometry width="50" height="50" relative="1" as="geometry">
            <mxPoint x="623" y="79.59999999999991" as="sourcePoint" />
            <mxPoint x="580" y="79.59999999999991" as="targetPoint" />
          </mxGeometry>
        </mxCell>
        <mxCell id="t3-glR02UN_HUnzGya-1-76" value="" style="endArrow=classic;html=1;entryX=0.5;entryY=1;entryDx=0;entryDy=0;" parent="1" target="t3-glR02UN_HUnzGya-1-29" edge="1">
          <mxGeometry width="50" height="50" relative="1" as="geometry">
            <mxPoint x="528" y="160" as="sourcePoint" />
            <mxPoint x="578" y="110" as="targetPoint" />
          </mxGeometry>
        </mxCell>
        <mxCell id="t3-glR02UN_HUnzGya-1-77" value="" style="endArrow=classic;html=1;entryX=0.5;entryY=1;entryDx=0;entryDy=0;exitX=0;exitY=0;exitDx=0;exitDy=0;" parent="1" source="t3-glR02UN_HUnzGya-1-27" target="t3-glR02UN_HUnzGya-1-23" edge="1">
          <mxGeometry width="50" height="50" relative="1" as="geometry">
            <mxPoint x="538" y="170" as="sourcePoint" />
            <mxPoint x="725" y="100" as="targetPoint" />
          </mxGeometry>
        </mxCell>
        <mxCell id="t3-glR02UN_HUnzGya-1-78" value="" style="endArrow=classic;html=1;entryX=0;entryY=0.5;entryDx=0;entryDy=0;exitX=1;exitY=0.5;exitDx=0;exitDy=0;" parent="1" source="t3-glR02UN_HUnzGya-1-27" target="t3-glR02UN_HUnzGya-1-71" edge="1">
          <mxGeometry width="50" height="50" relative="1" as="geometry">
            <mxPoint x="420" y="270" as="sourcePoint" />
            <mxPoint x="470" y="220" as="targetPoint" />
          </mxGeometry>
        </mxCell>
        <mxCell id="t3-glR02UN_HUnzGya-1-79" value="" style="endArrow=classic;html=1;entryX=0;entryY=0.5;entryDx=0;entryDy=0;exitX=1;exitY=1;exitDx=0;exitDy=0;" parent="1" source="t3-glR02UN_HUnzGya-1-27" target="t3-glR02UN_HUnzGya-1-72" edge="1">
          <mxGeometry width="50" height="50" relative="1" as="geometry">
            <mxPoint x="540" y="200" as="sourcePoint" />
            <mxPoint x="635.5799999999999" y="174.77999999999997" as="targetPoint" />
          </mxGeometry>
        </mxCell>
        <mxCell id="t3-glR02UN_HUnzGya-1-80" value="集团部门 GroupDept&lt;br&gt;CBOH_GROUPDEPT_3CH" style="rounded=1;whiteSpace=wrap;html=1;" parent="1" vertex="1">
          <mxGeometry x="640" y="490" width="160" height="60" as="geometry" />
        </mxCell>
        <mxCell id="t3-glR02UN_HUnzGya-1-81" value="" style="endArrow=classic;html=1;entryX=0.893;entryY=1.033;entryDx=0;entryDy=0;entryPerimeter=0;exitX=0.25;exitY=0;exitDx=0;exitDy=0;" parent="1" source="t3-glR02UN_HUnzGya-1-63" target="t3-glR02UN_HUnzGya-1-27" edge="1">
          <mxGeometry width="50" height="50" relative="1" as="geometry">
            <mxPoint x="650" y="390" as="sourcePoint" />
            <mxPoint x="500" y="230" as="targetPoint" />
          </mxGeometry>
        </mxCell>
        <mxCell id="t3-glR02UN_HUnzGya-1-82" value="" style="endArrow=classic;html=1;entryX=0.5;entryY=0;entryDx=0;entryDy=0;exitX=0.5;exitY=1;exitDx=0;exitDy=0;" parent="1" source="t3-glR02UN_HUnzGya-1-63" target="t3-glR02UN_HUnzGya-1-80" edge="1">
          <mxGeometry width="50" height="50" relative="1" as="geometry">
            <mxPoint x="420" y="350" as="sourcePoint" />
            <mxPoint x="470" y="300" as="targetPoint" />
          </mxGeometry>
        </mxCell>
        <mxCell id="t3-glR02UN_HUnzGya-1-83" value="" style="endArrow=classic;html=1;exitX=0.5;exitY=0;exitDx=0;exitDy=0;entryX=0.5;entryY=1;entryDx=0;entryDy=0;" parent="1" source="t3-glR02UN_HUnzGya-1-59" target="t3-glR02UN_HUnzGya-1-27" edge="1">
          <mxGeometry width="50" height="50" relative="1" as="geometry">
            <mxPoint x="550.0700000000002" y="359.5799999999999" as="sourcePoint" />
            <mxPoint x="502.5" y="230" as="targetPoint" />
          </mxGeometry>
        </mxCell>
        <mxCell id="t3-glR02UN_HUnzGya-1-84" value="" style="endArrow=classic;html=1;entryX=0.25;entryY=1;entryDx=0;entryDy=0;" parent="1" target="t3-glR02UN_HUnzGya-1-27" edge="1">
          <mxGeometry width="50" height="50" relative="1" as="geometry">
            <mxPoint x="180" y="380" as="sourcePoint" />
            <mxPoint x="470" y="270" as="targetPoint" />
          </mxGeometry>
        </mxCell>
        <mxCell id="t3-glR02UN_HUnzGya-1-85" value="门店区域 StoreArear&lt;br&gt;CBOH_STOREAREAR_3CH" style="rounded=1;whiteSpace=wrap;html=1;" parent="1" vertex="1">
          <mxGeometry x="470" y="380" width="160" height="60" as="geometry" />
        </mxCell>
        <mxCell id="t3-glR02UN_HUnzGya-1-86" value="" style="endArrow=classic;html=1;exitX=0.5;exitY=0;exitDx=0;exitDy=0;" parent="1" source="t3-glR02UN_HUnzGya-1-85" edge="1">
          <mxGeometry width="50" height="50" relative="1" as="geometry">
            <mxPoint x="420" y="350" as="sourcePoint" />
            <mxPoint x="480" y="220" as="targetPoint" />
          </mxGeometry>
        </mxCell>
        <mxCell id="t3-glR02UN_HUnzGya-1-87" value="门店打印机、打印字体、打印类型 StorePrint&lt;br&gt;CBOH_STOREPRN_3CH" style="rounded=1;whiteSpace=wrap;html=1;" parent="1" vertex="1">
          <mxGeometry x="40" y="490" width="260" height="60" as="geometry" />
        </mxCell>
        <mxCell id="t3-glR02UN_HUnzGya-1-88" value="" style="endArrow=classic;html=1;entryX=0.347;entryY=1.007;entryDx=0;entryDy=0;entryPerimeter=0;exitX=0.5;exitY=0;exitDx=0;exitDy=0;" parent="1" source="t3-glR02UN_HUnzGya-1-87" target="t3-glR02UN_HUnzGya-1-27" edge="1">
          <mxGeometry width="50" height="50" relative="1" as="geometry">
            <mxPoint x="420" y="360" as="sourcePoint" />
            <mxPoint x="470" y="310" as="targetPoint" />
          </mxGeometry>
        </mxCell>
        <mxCell id="t3-glR02UN_HUnzGya-1-89" value="门店手持机 Hand&lt;br&gt;CBOH_HAND_3CH" style="rounded=1;whiteSpace=wrap;html=1;" parent="1" vertex="1">
          <mxGeometry x="365" y="490" width="150" height="60" as="geometry" />
        </mxCell>
        <mxCell id="t3-glR02UN_HUnzGya-1-90" value="" style="endArrow=classic;html=1;entryX=0.592;entryY=1.047;entryDx=0;entryDy=0;entryPerimeter=0;exitX=0.5;exitY=0;exitDx=0;exitDy=0;" parent="1" source="t3-glR02UN_HUnzGya-1-89" target="t3-glR02UN_HUnzGya-1-27" edge="1">
          <mxGeometry width="50" height="50" relative="1" as="geometry">
            <mxPoint x="420" y="420" as="sourcePoint" />
            <mxPoint x="470" y="370" as="targetPoint" />
          </mxGeometry>
        </mxCell>
      </root>
    </mxGraphModel>
  </diagram>
</mxfile>
